<svg xmlns="http://www.w3.org/2000/svg" version="1.1" width="23.4698" height="23.4698" viewBox="0 0 23.4698 23.4698">
  <rect width="23.4698" height="23.4698" fill="#111111"/>
  <path fill="#deddda" d="m2.5 15.2433 0.303169-1.01975q0.474045 0.20395 0.992188 0.32522 0.523655 0.11575 0.959116 0.11575 0.4079 0 0.606337-0.19292 0.198438-0.19844 0.198438-0.54019 0-0.25907-0.115755-0.40239-0.110244-0.14883-0.385851-0.23702l-1.30087-0.4079q-0.700044-0.22049-0.964628-0.65044-0.259071-0.42995-0.259071-1.02526 0-0.84887 0.595313-1.26228 0.600825-0.41342 1.53238-0.41342 0.760678 0 1.28984 0.15986 0.529167 0.15985 0.848873 0.34175l-0.352779 0.93156q-0.170876-0.0937-0.451997-0.18191-0.28112-0.0882-0.600825-0.14331-0.314193-0.0606-0.595313-0.0606-0.474046 0-0.650435 0.16537-0.176389 0.16536-0.176389 0.45751 0 0.18741 0.08819 0.33073 0.08819 0.1378 0.314193 0.20946l1.2237 0.38585q0.749654 0.23702 1.0418 0.66146t0.292144 1.11897q0 0.74965-0.529167 1.27331-0.529167 0.52365-1.59301 0.52365-0.749653 0-1.30087-0.11575-0.545704-0.11025-1.00872-0.34727z"/>
  <path fill="#deddda" d="m16.3837 14.3553h1.48277v-5.69406h-1.48277v-1.21818h4.58611v1.21818h-1.47174v5.69406h1.47174v1.2237h-4.58611z"/>
  <path fill="#e5a50a" d="m11.3411 7.29462c-1.09876 0-1.88148 0.227489-2.34817 0.683161-0.46302 0.451992-0.694531 1.16306-0.694531 2.1332h1.68103c0-0.591639 0.108757-1.00304 0.325562-1.23455 0.216812-0.231513 0.586122-0.347265 1.10794-0.347265 0.455667 0 0.778874 0.102722 0.969967 0.308509 0.191087 0.202113 0.286802 0.492765 0.286802 0.871264 0 0.231513-0.03308 0.444476-0.09922 0.639238-0.06247 0.191093-0.172715 0.386027-0.330729 0.584459-0.158012 0.19844-0.380508 0.425928-0.667141 0.683161l-3.01532 2.71766 0.198437 1.24592h4.46431v0.595828l2.11408-1.22215-2.11408-1.22266v0.597378h-2.62878l1.97352-1.69188c0.554887-0.474045 0.97582-0.931552 1.26245-1.37252 0.286633-0.444648 0.429947-0.966808 0.429947-1.56579 0-0.44832-0.09922-0.852195-0.297656-1.21233-0.194757-0.363799-0.505449-0.652446-0.931721-0.865578-0.426273-0.216813-0.988511-0.325046-1.68672-0.325046z"/>
</svg>
